<mxfile host="app.diagrams.net" modified="2022-02-21T11:09:19.133Z" agent="5.0 (Windows NT 10.0; Win64; x64) AppleWebKit/537.36 (KHTML, like Gecko) Chrome/98.0.4758.102 Safari/537.36" etag="J-Zhdus1Xma9aEeSTjPZ" version="16.6.1" type="github">
  <diagram id="SW4DfvEqGbZ3StJW-6-M" name="Page-1">
    <mxGraphModel dx="19" dy="858" grid="1" gridSize="10" guides="1" tooltips="1" connect="1" arrows="1" fold="1" page="1" pageScale="1" pageWidth="1654" pageHeight="1169" math="0" shadow="0">
      <root>
        <mxCell id="0" />
        <mxCell id="1" parent="0" />
        <mxCell id="IJb-e8eg-xS6ZChyu8Ve-2" style="edgeStyle=orthogonalEdgeStyle;rounded=0;orthogonalLoop=1;jettySize=auto;html=1;exitX=0.98;exitY=0.51;exitDx=0;exitDy=0;exitPerimeter=0;entryX=0;entryY=0.5;entryDx=0;entryDy=0;" edge="1" parent="1" source="IJb-e8eg-xS6ZChyu8Ve-3" target="IJb-e8eg-xS6ZChyu8Ve-151">
          <mxGeometry relative="1" as="geometry" />
        </mxCell>
        <mxCell id="IJb-e8eg-xS6ZChyu8Ve-3" value="" style="points=[[0.35,0,0],[0.98,0.51,0],[1,0.71,0],[0.67,1,0],[0,0.795,0],[0,0.65,0]];verticalLabelPosition=bottom;html=1;verticalAlign=top;aspect=fixed;align=center;pointerEvents=1;shape=mxgraph.cisco19.user;fillColor=#005073;strokeColor=none;" vertex="1" parent="1">
          <mxGeometry x="1808.78" y="295" width="50" height="50" as="geometry" />
        </mxCell>
        <mxCell id="IJb-e8eg-xS6ZChyu8Ve-4" value="" style="outlineConnect=0;dashed=0;verticalLabelPosition=bottom;verticalAlign=top;align=center;html=1;shape=mxgraph.aws3.management_console;fillColor=#D2D3D3;gradientColor=none;" vertex="1" parent="1">
          <mxGeometry x="1810.78" y="501" width="50" height="50" as="geometry" />
        </mxCell>
        <mxCell id="IJb-e8eg-xS6ZChyu8Ve-5" value="" style="outlineConnect=0;dashed=0;verticalLabelPosition=bottom;verticalAlign=top;align=center;html=1;shape=mxgraph.aws3.traditional_server;fillColor=#7D7C7C;gradientColor=none;" vertex="1" parent="1">
          <mxGeometry x="2928.78" y="504" width="40" height="69" as="geometry" />
        </mxCell>
        <mxCell id="IJb-e8eg-xS6ZChyu8Ve-6" value="&lt;font style=&quot;font-size: 14px&quot;&gt;Terminal Application Service&lt;br&gt;(C++)&lt;br&gt;&lt;/font&gt;" style="text;html=1;align=center;verticalAlign=middle;resizable=0;points=[];autosize=1;strokeColor=none;" vertex="1" parent="1">
          <mxGeometry x="2860.28" y="470" width="185" height="34" as="geometry" />
        </mxCell>
        <mxCell id="IJb-e8eg-xS6ZChyu8Ve-7" value="&lt;font style=&quot;font-size: 14px&quot;&gt;Web-client&lt;/font&gt;" style="text;html=1;align=center;verticalAlign=middle;resizable=0;points=[];autosize=1;strokeColor=none;" vertex="1" parent="1">
          <mxGeometry x="1786.28" y="345" width="80" height="20" as="geometry" />
        </mxCell>
        <mxCell id="IJb-e8eg-xS6ZChyu8Ve-8" value="&lt;font style=&quot;font-size: 14px&quot;&gt;Terminal&lt;/font&gt;" style="text;html=1;align=center;verticalAlign=middle;resizable=0;points=[];autosize=1;strokeColor=none;" vertex="1" parent="1">
          <mxGeometry x="1800.78" y="551" width="70" height="20" as="geometry" />
        </mxCell>
        <mxCell id="IJb-e8eg-xS6ZChyu8Ve-9" value="" style="points=[[0.35,0,0],[0.98,0.51,0],[1,0.71,0],[0.67,1,0],[0,0.795,0],[0,0.65,0]];verticalLabelPosition=bottom;html=1;verticalAlign=top;aspect=fixed;align=center;pointerEvents=1;shape=mxgraph.cisco19.user;fillColor=#005073;strokeColor=none;" vertex="1" parent="1">
          <mxGeometry x="1806.28" y="119" width="50" height="50" as="geometry" />
        </mxCell>
        <mxCell id="IJb-e8eg-xS6ZChyu8Ve-10" value="&lt;font style=&quot;font-size: 14px&quot;&gt;Mobile App client&lt;/font&gt;" style="text;html=1;align=center;verticalAlign=middle;resizable=0;points=[];autosize=1;strokeColor=none;" vertex="1" parent="1">
          <mxGeometry x="1771.28" y="169" width="120" height="20" as="geometry" />
        </mxCell>
        <mxCell id="IJb-e8eg-xS6ZChyu8Ve-11" value="Actor" style="shape=umlActor;verticalLabelPosition=bottom;verticalAlign=top;html=1;outlineConnect=0;" vertex="1" parent="1">
          <mxGeometry x="1807.5" y="2125" width="60" height="130" as="geometry" />
        </mxCell>
        <mxCell id="IJb-e8eg-xS6ZChyu8Ve-12" value="Actor" style="shape=umlActor;verticalLabelPosition=bottom;verticalAlign=top;html=1;outlineConnect=0;" vertex="1" parent="1">
          <mxGeometry x="1760" y="2385" width="55" height="110" as="geometry" />
        </mxCell>
        <mxCell id="IJb-e8eg-xS6ZChyu8Ve-13" value="" style="endArrow=classic;html=1;exitX=1;exitY=0.3333333333333333;exitDx=0;exitDy=0;exitPerimeter=0;" edge="1" parent="1" source="IJb-e8eg-xS6ZChyu8Ve-12">
          <mxGeometry width="50" height="50" relative="1" as="geometry">
            <mxPoint x="1867.5" y="2475" as="sourcePoint" />
            <mxPoint x="1982.5" y="2395" as="targetPoint" />
          </mxGeometry>
        </mxCell>
        <mxCell id="IJb-e8eg-xS6ZChyu8Ve-14" value="" style="endArrow=classic;html=1;" edge="1" parent="1">
          <mxGeometry width="50" height="50" relative="1" as="geometry">
            <mxPoint x="1842.5" y="2349.0000000000005" as="sourcePoint" />
            <mxPoint x="1982.5" y="2349.0000000000005" as="targetPoint" />
          </mxGeometry>
        </mxCell>
        <mxCell id="IJb-e8eg-xS6ZChyu8Ve-15" value="" style="endArrow=classic;html=1;exitX=1;exitY=0.3333333333333333;exitDx=0;exitDy=0;exitPerimeter=0;" edge="1" parent="1" source="IJb-e8eg-xS6ZChyu8Ve-11">
          <mxGeometry width="50" height="50" relative="1" as="geometry">
            <mxPoint x="1867.5" y="2195.42" as="sourcePoint" />
            <mxPoint x="1982.5" y="2295" as="targetPoint" />
          </mxGeometry>
        </mxCell>
        <mxCell id="IJb-e8eg-xS6ZChyu8Ve-16" value="&lt;font style=&quot;font-size: 26px&quot;&gt;........&lt;/font&gt;" style="text;html=1;strokeColor=none;fillColor=none;align=center;verticalAlign=middle;whiteSpace=wrap;rounded=0;" vertex="1" parent="1">
          <mxGeometry x="1775" y="2327.5" width="40" height="20" as="geometry" />
        </mxCell>
        <mxCell id="IJb-e8eg-xS6ZChyu8Ve-17" style="edgeStyle=orthogonalEdgeStyle;rounded=0;orthogonalLoop=1;jettySize=auto;html=1;exitX=1;exitY=0.5;exitDx=0;exitDy=0;entryX=0;entryY=0.5;entryDx=0;entryDy=0;" edge="1" parent="1" source="IJb-e8eg-xS6ZChyu8Ve-18" target="IJb-e8eg-xS6ZChyu8Ve-21">
          <mxGeometry relative="1" as="geometry" />
        </mxCell>
        <mxCell id="IJb-e8eg-xS6ZChyu8Ve-18" value="domain&lt;br&gt;(fakepimeyes.com)" style="rounded=0;whiteSpace=wrap;html=1;" vertex="1" parent="1">
          <mxGeometry x="1982.5" y="2285" width="110" height="150" as="geometry" />
        </mxCell>
        <mxCell id="IJb-e8eg-xS6ZChyu8Ve-19" style="edgeStyle=orthogonalEdgeStyle;rounded=0;orthogonalLoop=1;jettySize=auto;html=1;exitX=1;exitY=0.25;exitDx=0;exitDy=0;entryX=0;entryY=0.5;entryDx=0;entryDy=0;" edge="1" parent="1" source="IJb-e8eg-xS6ZChyu8Ve-21" target="IJb-e8eg-xS6ZChyu8Ve-22">
          <mxGeometry relative="1" as="geometry" />
        </mxCell>
        <mxCell id="IJb-e8eg-xS6ZChyu8Ve-20" style="edgeStyle=orthogonalEdgeStyle;rounded=0;orthogonalLoop=1;jettySize=auto;html=1;exitX=1;exitY=1;exitDx=0;exitDy=0;entryX=0;entryY=0.5;entryDx=0;entryDy=0;" edge="1" parent="1" source="IJb-e8eg-xS6ZChyu8Ve-21" target="IJb-e8eg-xS6ZChyu8Ve-23">
          <mxGeometry relative="1" as="geometry" />
        </mxCell>
        <mxCell id="IJb-e8eg-xS6ZChyu8Ve-21" value="DNS Round-robin&lt;br&gt;(REGION BASED)" style="rounded=0;whiteSpace=wrap;html=1;" vertex="1" parent="1">
          <mxGeometry x="2122.5" y="2335" width="100" height="50" as="geometry" />
        </mxCell>
        <mxCell id="IJb-e8eg-xS6ZChyu8Ve-22" value="IP1" style="rounded=0;whiteSpace=wrap;html=1;" vertex="1" parent="1">
          <mxGeometry x="2282.5" y="2215" width="120" height="50" as="geometry" />
        </mxCell>
        <mxCell id="IJb-e8eg-xS6ZChyu8Ve-23" value="IPN" style="rounded=0;whiteSpace=wrap;html=1;" vertex="1" parent="1">
          <mxGeometry x="2282.5" y="2520" width="120" height="50" as="geometry" />
        </mxCell>
        <mxCell id="IJb-e8eg-xS6ZChyu8Ve-24" value="NGINX" style="rounded=0;whiteSpace=wrap;html=1;" vertex="1" parent="1">
          <mxGeometry x="2362.5" y="2245" width="60" height="30" as="geometry" />
        </mxCell>
        <mxCell id="IJb-e8eg-xS6ZChyu8Ve-25" value="NGINX" style="rounded=0;whiteSpace=wrap;html=1;" vertex="1" parent="1">
          <mxGeometry x="2359.5" y="2560" width="60" height="30" as="geometry" />
        </mxCell>
        <mxCell id="IJb-e8eg-xS6ZChyu8Ve-26" value="FRONTEND" style="rounded=0;whiteSpace=wrap;html=1;" vertex="1" parent="1">
          <mxGeometry x="2242.5" y="2010" width="360" height="90" as="geometry" />
        </mxCell>
        <mxCell id="IJb-e8eg-xS6ZChyu8Ve-27" value="BACKEND" style="rounded=0;whiteSpace=wrap;html=1;" vertex="1" parent="1">
          <mxGeometry x="2922.5" y="2025" width="240" height="60" as="geometry" />
        </mxCell>
        <mxCell id="IJb-e8eg-xS6ZChyu8Ve-28" value="REPLICATED SHARDED (PARTITIONED)DATABASE&lt;br&gt;(SQL)" style="rounded=0;whiteSpace=wrap;html=1;fillColor=#e1d5e7;strokeColor=#9673a6;" vertex="1" parent="1">
          <mxGeometry x="4082.5" y="2145" width="260" height="60" as="geometry" />
        </mxCell>
        <mxCell id="IJb-e8eg-xS6ZChyu8Ve-29" value="MASTER" style="shape=cylinder3;whiteSpace=wrap;html=1;boundedLbl=1;backgroundOutline=1;size=15;" vertex="1" parent="1">
          <mxGeometry x="4010.05" y="2457.5" width="60" height="80" as="geometry" />
        </mxCell>
        <mxCell id="IJb-e8eg-xS6ZChyu8Ve-30" value="SLAVE" style="shape=cylinder3;whiteSpace=wrap;html=1;boundedLbl=1;backgroundOutline=1;size=15;" vertex="1" parent="1">
          <mxGeometry x="3622.5" y="2540" width="60" height="80" as="geometry" />
        </mxCell>
        <mxCell id="IJb-e8eg-xS6ZChyu8Ve-31" value="VUE.JS&lt;br&gt;SPA" style="rounded=0;whiteSpace=wrap;html=1;" vertex="1" parent="1">
          <mxGeometry x="2462.5" y="2746.5" width="110" height="38.5" as="geometry" />
        </mxCell>
        <mxCell id="IJb-e8eg-xS6ZChyu8Ve-32" value="VUE.JS&lt;br&gt;SPA" style="rounded=0;whiteSpace=wrap;html=1;" vertex="1" parent="1">
          <mxGeometry x="2362.5" y="2275" width="60" height="30" as="geometry" />
        </mxCell>
        <mxCell id="IJb-e8eg-xS6ZChyu8Ve-33" style="edgeStyle=orthogonalEdgeStyle;rounded=1;jumpStyle=arc;orthogonalLoop=1;jettySize=auto;html=1;exitX=1;exitY=0.5;exitDx=0;exitDy=0;entryX=0;entryY=0.25;entryDx=0;entryDy=0;" edge="1" parent="1" source="IJb-e8eg-xS6ZChyu8Ve-34" target="IJb-e8eg-xS6ZChyu8Ve-68">
          <mxGeometry relative="1" as="geometry" />
        </mxCell>
        <mxCell id="IJb-e8eg-xS6ZChyu8Ve-34" value="AJAX" style="rounded=0;whiteSpace=wrap;html=1;" vertex="1" parent="1">
          <mxGeometry x="2472.5" y="2281.25" width="60" height="30" as="geometry" />
        </mxCell>
        <mxCell id="IJb-e8eg-xS6ZChyu8Ve-35" value="" style="endArrow=classic;startArrow=classic;html=1;entryX=0;entryY=0.5;entryDx=0;entryDy=0;exitX=1;exitY=0.5;exitDx=0;exitDy=0;" edge="1" parent="1" target="IJb-e8eg-xS6ZChyu8Ve-34">
          <mxGeometry width="50" height="50" relative="1" as="geometry">
            <mxPoint x="2422.5" y="2292.5" as="sourcePoint" />
            <mxPoint x="2562.5" y="2257.5" as="targetPoint" />
          </mxGeometry>
        </mxCell>
        <mxCell id="IJb-e8eg-xS6ZChyu8Ve-36" value="SLAVE" style="shape=cylinder3;whiteSpace=wrap;html=1;boundedLbl=1;backgroundOutline=1;size=15;" vertex="1" parent="1">
          <mxGeometry x="3682.5" y="2430" width="60" height="80" as="geometry" />
        </mxCell>
        <mxCell id="IJb-e8eg-xS6ZChyu8Ve-37" style="edgeStyle=orthogonalEdgeStyle;rounded=1;orthogonalLoop=1;jettySize=auto;html=1;exitX=1;exitY=0;exitDx=0;exitDy=52.5;exitPerimeter=0;entryX=0;entryY=0;entryDx=0;entryDy=27.5;entryPerimeter=0;jumpStyle=arc;" edge="1" parent="1" source="IJb-e8eg-xS6ZChyu8Ve-38" target="IJb-e8eg-xS6ZChyu8Ve-29">
          <mxGeometry relative="1" as="geometry" />
        </mxCell>
        <mxCell id="IJb-e8eg-xS6ZChyu8Ve-38" value="SLAVE" style="shape=cylinder3;whiteSpace=wrap;html=1;boundedLbl=1;backgroundOutline=1;size=15;" vertex="1" parent="1">
          <mxGeometry x="3612.5" y="2305" width="60" height="80" as="geometry" />
        </mxCell>
        <mxCell id="IJb-e8eg-xS6ZChyu8Ve-39" value="DATABASE" style="rounded=0;whiteSpace=wrap;html=1;" vertex="1" parent="1">
          <mxGeometry x="3440.5" y="2015" width="1352" height="60" as="geometry" />
        </mxCell>
        <mxCell id="IJb-e8eg-xS6ZChyu8Ve-40" value="IP1-COPY" style="rounded=0;whiteSpace=wrap;html=1;" vertex="1" parent="1">
          <mxGeometry x="2282.5" y="2335" width="113" height="45" as="geometry" />
        </mxCell>
        <mxCell id="IJb-e8eg-xS6ZChyu8Ve-41" value="" style="shape=flexArrow;endArrow=classic;startArrow=classic;html=1;entryX=0.25;entryY=1;entryDx=0;entryDy=0;exitX=0.25;exitY=0;exitDx=0;exitDy=0;" edge="1" parent="1" source="IJb-e8eg-xS6ZChyu8Ve-40" target="IJb-e8eg-xS6ZChyu8Ve-22">
          <mxGeometry width="50" height="50" relative="1" as="geometry">
            <mxPoint x="2322.5" y="2355" as="sourcePoint" />
            <mxPoint x="2372.5" y="2305" as="targetPoint" />
          </mxGeometry>
        </mxCell>
        <mxCell id="IJb-e8eg-xS6ZChyu8Ve-42" value="Heartbeat (опционально)" style="text;html=1;strokeColor=none;fillColor=none;align=center;verticalAlign=middle;whiteSpace=wrap;rounded=0;" vertex="1" parent="1">
          <mxGeometry x="2339.5" y="2315" width="40" height="20" as="geometry" />
        </mxCell>
        <mxCell id="IJb-e8eg-xS6ZChyu8Ve-43" value="IPN-COPY" style="rounded=0;whiteSpace=wrap;html=1;" vertex="1" parent="1">
          <mxGeometry x="2282.5" y="2640" width="113" height="45" as="geometry" />
        </mxCell>
        <mxCell id="IJb-e8eg-xS6ZChyu8Ve-44" value="" style="shape=flexArrow;endArrow=classic;startArrow=classic;html=1;entryX=0.25;entryY=1;entryDx=0;entryDy=0;exitX=0.25;exitY=0;exitDx=0;exitDy=0;" edge="1" parent="1" source="IJb-e8eg-xS6ZChyu8Ve-43">
          <mxGeometry width="50" height="50" relative="1" as="geometry">
            <mxPoint x="2322.5" y="2660" as="sourcePoint" />
            <mxPoint x="2312.5" y="2570" as="targetPoint" />
          </mxGeometry>
        </mxCell>
        <mxCell id="IJb-e8eg-xS6ZChyu8Ve-45" value="Heartbeat&lt;br&gt;(опционально)" style="text;html=1;strokeColor=none;fillColor=none;align=center;verticalAlign=middle;whiteSpace=wrap;rounded=0;" vertex="1" parent="1">
          <mxGeometry x="2339.5" y="2620" width="40" height="20" as="geometry" />
        </mxCell>
        <mxCell id="IJb-e8eg-xS6ZChyu8Ve-46" value="" style="endArrow=classic;startArrow=classic;html=1;entryX=1;entryY=0.5;entryDx=0;entryDy=0;entryPerimeter=0;exitX=0;exitY=0.5;exitDx=0;exitDy=0;exitPerimeter=0;" edge="1" parent="1" source="IJb-e8eg-xS6ZChyu8Ve-29" target="IJb-e8eg-xS6ZChyu8Ve-36">
          <mxGeometry width="50" height="50" relative="1" as="geometry">
            <mxPoint x="3801.2000000000007" y="2449.35" as="sourcePoint" />
            <mxPoint x="3662.5" y="2395" as="targetPoint" />
            <Array as="points">
              <mxPoint x="3760.05" y="2502.5" />
              <mxPoint x="3760.5" y="2475" />
            </Array>
          </mxGeometry>
        </mxCell>
        <mxCell id="IJb-e8eg-xS6ZChyu8Ve-47" value="" style="endArrow=classic;startArrow=classic;html=1;entryX=1;entryY=0.5;entryDx=0;entryDy=0;entryPerimeter=0;exitX=0;exitY=1;exitDx=0;exitDy=-15;exitPerimeter=0;" edge="1" parent="1" source="IJb-e8eg-xS6ZChyu8Ve-29">
          <mxGeometry width="50" height="50" relative="1" as="geometry">
            <mxPoint x="3782.5" y="2595" as="sourcePoint" />
            <mxPoint x="3682.5" y="2575" as="targetPoint" />
            <Array as="points">
              <mxPoint x="3760.05" y="2522.5" />
              <mxPoint x="3760.05" y="2575.5" />
            </Array>
          </mxGeometry>
        </mxCell>
        <mxCell id="IJb-e8eg-xS6ZChyu8Ve-48" value="PARTITION 1" style="rounded=0;whiteSpace=wrap;html=1;" vertex="1" parent="1">
          <mxGeometry x="3672.5" y="2245" width="200" height="30" as="geometry" />
        </mxCell>
        <mxCell id="IJb-e8eg-xS6ZChyu8Ve-49" value="PARTITION 2" style="rounded=0;whiteSpace=wrap;html=1;" vertex="1" parent="1">
          <mxGeometry x="4162.5" y="2303.75" width="170" height="30" as="geometry" />
        </mxCell>
        <mxCell id="IJb-e8eg-xS6ZChyu8Ve-50" value="MASTER" style="shape=cylinder3;whiteSpace=wrap;html=1;boundedLbl=1;backgroundOutline=1;size=15;" vertex="1" parent="1">
          <mxGeometry x="4602.5" y="2245" width="60" height="80" as="geometry" />
        </mxCell>
        <mxCell id="IJb-e8eg-xS6ZChyu8Ve-51" value="SLAVE" style="shape=cylinder3;whiteSpace=wrap;html=1;boundedLbl=1;backgroundOutline=1;size=15;" vertex="1" parent="1">
          <mxGeometry x="4197.5" y="2453.75" width="60" height="80" as="geometry" />
        </mxCell>
        <mxCell id="IJb-e8eg-xS6ZChyu8Ve-52" value="SLAVE" style="shape=cylinder3;whiteSpace=wrap;html=1;boundedLbl=1;backgroundOutline=1;size=15;" vertex="1" parent="1">
          <mxGeometry x="4197.5" y="2353.75" width="60" height="80" as="geometry" />
        </mxCell>
        <mxCell id="IJb-e8eg-xS6ZChyu8Ve-53" value="PARTITION 3" style="rounded=0;whiteSpace=wrap;html=1;" vertex="1" parent="1">
          <mxGeometry x="4162.5" y="2553.75" width="170" height="30" as="geometry" />
        </mxCell>
        <mxCell id="IJb-e8eg-xS6ZChyu8Ve-54" value="SLAVE" style="shape=cylinder3;whiteSpace=wrap;html=1;boundedLbl=1;backgroundOutline=1;size=15;" vertex="1" parent="1">
          <mxGeometry x="4197.5" y="2725.75" width="60" height="80" as="geometry" />
        </mxCell>
        <mxCell id="IJb-e8eg-xS6ZChyu8Ve-55" value="SLAVE" style="shape=cylinder3;whiteSpace=wrap;html=1;boundedLbl=1;backgroundOutline=1;size=15;" vertex="1" parent="1">
          <mxGeometry x="4197.5" y="2603.75" width="60" height="80" as="geometry" />
        </mxCell>
        <mxCell id="IJb-e8eg-xS6ZChyu8Ve-56" value="" style="endArrow=classic;startArrow=classic;html=1;exitX=1;exitY=0;exitDx=0;exitDy=52.5;exitPerimeter=0;entryX=0;entryY=0.5;entryDx=0;entryDy=0;entryPerimeter=0;" edge="1" parent="1" source="IJb-e8eg-xS6ZChyu8Ve-55" target="IJb-e8eg-xS6ZChyu8Ve-50">
          <mxGeometry width="50" height="50" relative="1" as="geometry">
            <mxPoint x="4362.5" y="2662.25" as="sourcePoint" />
            <mxPoint x="4412.5" y="2612.25" as="targetPoint" />
            <Array as="points">
              <mxPoint x="4512.5" y="2656.25" />
              <mxPoint x="4522.5" y="2282.25" />
            </Array>
          </mxGeometry>
        </mxCell>
        <mxCell id="IJb-e8eg-xS6ZChyu8Ve-57" value="" style="endArrow=classic;startArrow=classic;html=1;exitX=1;exitY=0.5;exitDx=0;exitDy=0;exitPerimeter=0;entryX=0;entryY=0;entryDx=0;entryDy=52.5;entryPerimeter=0;" edge="1" parent="1" source="IJb-e8eg-xS6ZChyu8Ve-54" target="IJb-e8eg-xS6ZChyu8Ve-50">
          <mxGeometry width="50" height="50" relative="1" as="geometry">
            <mxPoint x="4267.5" y="2666.25" as="sourcePoint" />
            <mxPoint x="4602.5" y="2292.25" as="targetPoint" />
            <Array as="points">
              <mxPoint x="4522.5" y="2766" />
              <mxPoint x="4532.5" y="2292.25" />
            </Array>
          </mxGeometry>
        </mxCell>
        <mxCell id="IJb-e8eg-xS6ZChyu8Ve-58" style="edgeStyle=orthogonalEdgeStyle;rounded=1;jumpStyle=arc;orthogonalLoop=1;jettySize=auto;html=1;exitX=1;exitY=0.5;exitDx=0;exitDy=0;entryX=0;entryY=0.5;entryDx=0;entryDy=0;" edge="1" parent="1" source="IJb-e8eg-xS6ZChyu8Ve-59" target="IJb-e8eg-xS6ZChyu8Ve-68">
          <mxGeometry relative="1" as="geometry" />
        </mxCell>
        <mxCell id="IJb-e8eg-xS6ZChyu8Ve-59" value="" style="shape=image;html=1;verticalAlign=top;verticalLabelPosition=bottom;labelBackgroundColor=#ffffff;imageAspect=0;aspect=fixed;image=https://cdn4.iconfinder.com/data/icons/essential-app-1/16/dot-more-menu-hide-128.png" vertex="1" parent="1">
          <mxGeometry x="2275" y="2392" width="128" height="128" as="geometry" />
        </mxCell>
        <mxCell id="IJb-e8eg-xS6ZChyu8Ve-60" value="PARTITION 4" style="rounded=0;whiteSpace=wrap;html=1;" vertex="1" parent="1">
          <mxGeometry x="4162.5" y="2822.25" width="170" height="30" as="geometry" />
        </mxCell>
        <mxCell id="IJb-e8eg-xS6ZChyu8Ve-61" value="SLAVE" style="shape=cylinder3;whiteSpace=wrap;html=1;boundedLbl=1;backgroundOutline=1;size=15;" vertex="1" parent="1">
          <mxGeometry x="4197.5" y="2872.25" width="60" height="80" as="geometry" />
        </mxCell>
        <mxCell id="IJb-e8eg-xS6ZChyu8Ve-62" value="" style="endArrow=classic;startArrow=classic;html=1;exitX=1;exitY=0.5;exitDx=0;exitDy=0;exitPerimeter=0;entryX=0;entryY=1;entryDx=0;entryDy=-15;entryPerimeter=0;" edge="1" parent="1" source="IJb-e8eg-xS6ZChyu8Ve-61" target="IJb-e8eg-xS6ZChyu8Ve-50">
          <mxGeometry width="50" height="50" relative="1" as="geometry">
            <mxPoint x="4312.5" y="2932.25" as="sourcePoint" />
            <mxPoint x="4362.5" y="2882.25" as="targetPoint" />
            <Array as="points">
              <mxPoint x="4532.5" y="2912.25" />
              <mxPoint x="4542.5" y="2307.25" />
            </Array>
          </mxGeometry>
        </mxCell>
        <mxCell id="IJb-e8eg-xS6ZChyu8Ve-63" value="MASTER" style="shape=cylinder3;whiteSpace=wrap;html=1;boundedLbl=1;backgroundOutline=1;size=15;" vertex="1" parent="1">
          <mxGeometry x="4380.5" y="2402.25" width="60" height="80" as="geometry" />
        </mxCell>
        <mxCell id="IJb-e8eg-xS6ZChyu8Ve-64" value="" style="endArrow=classic;startArrow=classic;html=1;entryX=0;entryY=0;entryDx=0;entryDy=27.5;entryPerimeter=0;exitX=1;exitY=0;exitDx=0;exitDy=27.5;exitPerimeter=0;" edge="1" parent="1" source="IJb-e8eg-xS6ZChyu8Ve-52" target="IJb-e8eg-xS6ZChyu8Ve-63">
          <mxGeometry width="50" height="50" relative="1" as="geometry">
            <mxPoint x="4312.5" y="2452.25" as="sourcePoint" />
            <mxPoint x="4362.5" y="2402.25" as="targetPoint" />
          </mxGeometry>
        </mxCell>
        <mxCell id="IJb-e8eg-xS6ZChyu8Ve-65" value="" style="endArrow=classic;startArrow=classic;html=1;entryX=0;entryY=0;entryDx=0;entryDy=52.5;entryPerimeter=0;exitX=1;exitY=0;exitDx=0;exitDy=52.5;exitPerimeter=0;" edge="1" parent="1" source="IJb-e8eg-xS6ZChyu8Ve-51" target="IJb-e8eg-xS6ZChyu8Ve-63">
          <mxGeometry width="50" height="50" relative="1" as="geometry">
            <mxPoint x="4267.5" y="2391.25" as="sourcePoint" />
            <mxPoint x="4390.5" y="2439.75" as="targetPoint" />
          </mxGeometry>
        </mxCell>
        <mxCell id="IJb-e8eg-xS6ZChyu8Ve-66" style="edgeStyle=orthogonalEdgeStyle;rounded=1;jumpStyle=arc;orthogonalLoop=1;jettySize=auto;html=1;exitX=1;exitY=0.5;exitDx=0;exitDy=0;entryX=0;entryY=0.75;entryDx=0;entryDy=0;" edge="1" parent="1" source="IJb-e8eg-xS6ZChyu8Ve-68" target="IJb-e8eg-xS6ZChyu8Ve-93">
          <mxGeometry relative="1" as="geometry" />
        </mxCell>
        <mxCell id="IJb-e8eg-xS6ZChyu8Ve-67" value="COOKIE" style="edgeLabel;html=1;align=center;verticalAlign=middle;resizable=0;points=[];" vertex="1" connectable="0" parent="IJb-e8eg-xS6ZChyu8Ve-66">
          <mxGeometry x="-0.0816" y="-1" relative="1" as="geometry">
            <mxPoint as="offset" />
          </mxGeometry>
        </mxCell>
        <mxCell id="IJb-e8eg-xS6ZChyu8Ve-68" value="Распределение запросов" style="rounded=1;whiteSpace=wrap;html=1;" vertex="1" parent="1">
          <mxGeometry x="2542.5" y="2407.5" width="120" height="60" as="geometry" />
        </mxCell>
        <mxCell id="IJb-e8eg-xS6ZChyu8Ve-69" style="edgeStyle=orthogonalEdgeStyle;rounded=1;jumpStyle=arc;orthogonalLoop=1;jettySize=auto;html=1;exitX=1;exitY=0.5;exitDx=0;exitDy=0;entryX=0;entryY=0.75;entryDx=0;entryDy=0;" edge="1" parent="1" source="IJb-e8eg-xS6ZChyu8Ve-70" target="IJb-e8eg-xS6ZChyu8Ve-68">
          <mxGeometry relative="1" as="geometry" />
        </mxCell>
        <mxCell id="IJb-e8eg-xS6ZChyu8Ve-70" value="AJAX" style="rounded=0;whiteSpace=wrap;html=1;" vertex="1" parent="1">
          <mxGeometry x="2432.5" y="2510" width="60" height="30" as="geometry" />
        </mxCell>
        <mxCell id="IJb-e8eg-xS6ZChyu8Ve-71" value="" style="endArrow=classic;startArrow=classic;html=1;entryX=0;entryY=0.5;entryDx=0;entryDy=0;exitX=1;exitY=0.5;exitDx=0;exitDy=0;" edge="1" parent="1" target="IJb-e8eg-xS6ZChyu8Ve-70">
          <mxGeometry width="50" height="50" relative="1" as="geometry">
            <mxPoint x="2402.5" y="2551.25" as="sourcePoint" />
            <mxPoint x="2542.5" y="2516.25" as="targetPoint" />
          </mxGeometry>
        </mxCell>
        <mxCell id="IJb-e8eg-xS6ZChyu8Ve-72" value="READ" style="text;html=1;strokeColor=none;fillColor=none;align=center;verticalAlign=middle;whiteSpace=wrap;rounded=0;" vertex="1" parent="1">
          <mxGeometry x="3652.5" y="2437.5" width="40" height="20" as="geometry" />
        </mxCell>
        <mxCell id="IJb-e8eg-xS6ZChyu8Ve-73" value="READ" style="text;html=1;strokeColor=none;fillColor=none;align=center;verticalAlign=middle;whiteSpace=wrap;rounded=0;" vertex="1" parent="1">
          <mxGeometry x="3582.5" y="2547.5" width="40" height="20" as="geometry" />
        </mxCell>
        <mxCell id="IJb-e8eg-xS6ZChyu8Ve-74" value="READ" style="text;html=1;strokeColor=none;fillColor=none;align=center;verticalAlign=middle;whiteSpace=wrap;rounded=0;" vertex="1" parent="1">
          <mxGeometry x="3562.5" y="2313.75" width="40" height="20" as="geometry" />
        </mxCell>
        <mxCell id="IJb-e8eg-xS6ZChyu8Ve-75" value="READ" style="text;html=1;strokeColor=none;fillColor=none;align=center;verticalAlign=middle;whiteSpace=wrap;rounded=0;" vertex="1" parent="1">
          <mxGeometry x="4157.5" y="2357.25" width="40" height="20" as="geometry" />
        </mxCell>
        <mxCell id="IJb-e8eg-xS6ZChyu8Ve-76" value="READ" style="text;html=1;strokeColor=none;fillColor=none;align=center;verticalAlign=middle;whiteSpace=wrap;rounded=0;" vertex="1" parent="1">
          <mxGeometry x="4152.5" y="2453.75" width="40" height="20" as="geometry" />
        </mxCell>
        <mxCell id="IJb-e8eg-xS6ZChyu8Ve-77" value="READ" style="text;html=1;strokeColor=none;fillColor=none;align=center;verticalAlign=middle;whiteSpace=wrap;rounded=0;" vertex="1" parent="1">
          <mxGeometry x="4152.5" y="2603.75" width="40" height="20" as="geometry" />
        </mxCell>
        <mxCell id="IJb-e8eg-xS6ZChyu8Ve-78" value="READ" style="text;html=1;strokeColor=none;fillColor=none;align=center;verticalAlign=middle;whiteSpace=wrap;rounded=0;" vertex="1" parent="1">
          <mxGeometry x="4157.5" y="2758.75" width="40" height="20" as="geometry" />
        </mxCell>
        <mxCell id="IJb-e8eg-xS6ZChyu8Ve-79" value="READ" style="text;html=1;strokeColor=none;fillColor=none;align=center;verticalAlign=middle;whiteSpace=wrap;rounded=0;" vertex="1" parent="1">
          <mxGeometry x="4152.5" y="2882.25" width="40" height="20" as="geometry" />
        </mxCell>
        <mxCell id="IJb-e8eg-xS6ZChyu8Ve-80" style="edgeStyle=orthogonalEdgeStyle;rounded=1;jumpStyle=arc;orthogonalLoop=1;jettySize=auto;html=1;exitX=0.5;exitY=0;exitDx=0;exitDy=0;entryX=0.5;entryY=1;entryDx=0;entryDy=0;" edge="1" parent="1" source="IJb-e8eg-xS6ZChyu8Ve-81" target="IJb-e8eg-xS6ZChyu8Ve-84">
          <mxGeometry relative="1" as="geometry" />
        </mxCell>
        <mxCell id="IJb-e8eg-xS6ZChyu8Ve-81" value="syslog-ng&lt;br&gt;(обработка логов)" style="rounded=0;whiteSpace=wrap;html=1;" vertex="1" parent="1">
          <mxGeometry x="3212.5" y="2145" width="120" height="60" as="geometry" />
        </mxCell>
        <mxCell id="IJb-e8eg-xS6ZChyu8Ve-82" value="" style="endArrow=classic;html=1;entryX=0.25;entryY=1;entryDx=0;entryDy=0;exitX=1;exitY=0.25;exitDx=0;exitDy=0;fillColor=#f8cecc;strokeColor=#b85450;" edge="1" parent="1" source="IJb-e8eg-xS6ZChyu8Ve-127" target="IJb-e8eg-xS6ZChyu8Ve-81">
          <mxGeometry width="50" height="50" relative="1" as="geometry">
            <mxPoint x="3202.4999999999995" y="2363.75" as="sourcePoint" />
            <mxPoint x="3282.5" y="2375" as="targetPoint" />
            <Array as="points">
              <mxPoint x="3242.5" y="2825" />
              <mxPoint x="3242.5" y="2364" />
            </Array>
          </mxGeometry>
        </mxCell>
        <mxCell id="IJb-e8eg-xS6ZChyu8Ve-83" value="" style="endArrow=classic;html=1;entryX=0.5;entryY=1;entryDx=0;entryDy=0;exitX=1;exitY=0.25;exitDx=0;exitDy=0;fillColor=#f8cecc;strokeColor=#b85450;" edge="1" parent="1" source="IJb-e8eg-xS6ZChyu8Ve-99" target="IJb-e8eg-xS6ZChyu8Ve-81">
          <mxGeometry width="50" height="50" relative="1" as="geometry">
            <mxPoint x="3202.5" y="2517.5" as="sourcePoint" />
            <mxPoint x="3302.5" y="2235" as="targetPoint" />
            <Array as="points">
              <mxPoint x="3272.5" y="3096" />
              <mxPoint x="3272.5" y="2518" />
            </Array>
          </mxGeometry>
        </mxCell>
        <mxCell id="IJb-e8eg-xS6ZChyu8Ve-84" value="ЛОГИ" style="rounded=0;whiteSpace=wrap;html=1;" vertex="1" parent="1">
          <mxGeometry x="3212.5" y="2055" width="120" height="60" as="geometry" />
        </mxCell>
        <mxCell id="IJb-e8eg-xS6ZChyu8Ve-85" style="edgeStyle=orthogonalEdgeStyle;rounded=1;jumpStyle=arc;orthogonalLoop=1;jettySize=auto;html=1;exitX=0.5;exitY=0;exitDx=0;exitDy=0;entryX=0.5;entryY=1;entryDx=0;entryDy=0;" edge="1" parent="1" source="IJb-e8eg-xS6ZChyu8Ve-86" target="IJb-e8eg-xS6ZChyu8Ve-87">
          <mxGeometry relative="1" as="geometry" />
        </mxCell>
        <mxCell id="IJb-e8eg-xS6ZChyu8Ve-86" value="prometeus&lt;br&gt;метрики&lt;br&gt;(/metrics)" style="rounded=0;whiteSpace=wrap;html=1;" vertex="1" parent="1">
          <mxGeometry x="2763.5" y="2130" width="100" height="50" as="geometry" />
        </mxCell>
        <mxCell id="IJb-e8eg-xS6ZChyu8Ve-87" value="grafana&lt;br&gt;alerts!" style="rounded=0;whiteSpace=wrap;html=1;" vertex="1" parent="1">
          <mxGeometry x="2763.5" y="2045" width="100" height="50" as="geometry" />
        </mxCell>
        <mxCell id="IJb-e8eg-xS6ZChyu8Ve-88" value="HTML" style="rounded=0;whiteSpace=wrap;html=1;" vertex="1" parent="1">
          <mxGeometry x="2462.5" y="2785" width="70" height="24.25" as="geometry" />
        </mxCell>
        <mxCell id="IJb-e8eg-xS6ZChyu8Ve-89" value="CSS" style="rounded=0;whiteSpace=wrap;html=1;" vertex="1" parent="1">
          <mxGeometry x="2462.5" y="2809.25" width="70" height="24.25" as="geometry" />
        </mxCell>
        <mxCell id="IJb-e8eg-xS6ZChyu8Ve-90" value="STATIC" style="rounded=0;whiteSpace=wrap;html=1;" vertex="1" parent="1">
          <mxGeometry x="2462.5" y="2833.5" width="70" height="24.25" as="geometry" />
        </mxCell>
        <mxCell id="IJb-e8eg-xS6ZChyu8Ve-91" value="сервис поиска&amp;nbsp;&lt;br&gt;похожих лиц" style="rounded=1;whiteSpace=wrap;html=1;" vertex="1" parent="1">
          <mxGeometry x="2892.5" y="2305" width="120" height="60" as="geometry" />
        </mxCell>
        <mxCell id="IJb-e8eg-xS6ZChyu8Ve-92" style="edgeStyle=orthogonalEdgeStyle;rounded=1;jumpStyle=arc;orthogonalLoop=1;jettySize=auto;html=1;exitX=0;exitY=0.25;exitDx=0;exitDy=0;entryX=0.607;entryY=0.984;entryDx=0;entryDy=0;entryPerimeter=0;fillColor=#dae8fc;strokeColor=#6c8ebf;" edge="1" parent="1" source="IJb-e8eg-xS6ZChyu8Ve-93" target="IJb-e8eg-xS6ZChyu8Ve-86">
          <mxGeometry relative="1" as="geometry">
            <mxPoint x="2842.4999999999995" y="2975" as="targetPoint" />
          </mxGeometry>
        </mxCell>
        <mxCell id="IJb-e8eg-xS6ZChyu8Ve-93" value="сервис авторизации" style="rounded=1;whiteSpace=wrap;html=1;" vertex="1" parent="1">
          <mxGeometry x="2892.5" y="3028.5" width="120" height="60" as="geometry" />
        </mxCell>
        <mxCell id="IJb-e8eg-xS6ZChyu8Ve-94" value="" style="endArrow=classic;startArrow=classic;html=1;entryX=0;entryY=0.75;entryDx=0;entryDy=0;exitX=0;exitY=0.5;exitDx=0;exitDy=0;fillColor=#d5e8d4;strokeColor=#82b366;" edge="1" parent="1" source="IJb-e8eg-xS6ZChyu8Ve-93" target="IJb-e8eg-xS6ZChyu8Ve-91">
          <mxGeometry width="50" height="50" relative="1" as="geometry">
            <mxPoint x="2772.5" y="2465" as="sourcePoint" />
            <mxPoint x="2822.5" y="2415" as="targetPoint" />
            <Array as="points">
              <mxPoint x="2812.5" y="3059" />
              <mxPoint x="2812.5" y="2555" />
              <mxPoint x="2812.5" y="2350" />
            </Array>
          </mxGeometry>
        </mxCell>
        <mxCell id="IJb-e8eg-xS6ZChyu8Ve-95" value="PRIVATE API" style="text;html=1;strokeColor=#82b366;fillColor=#d5e8d4;align=center;verticalAlign=middle;whiteSpace=wrap;rounded=0;" vertex="1" parent="1">
          <mxGeometry x="2813.5" y="2446" width="79" height="20" as="geometry" />
        </mxCell>
        <mxCell id="IJb-e8eg-xS6ZChyu8Ve-96" value="websocket" style="rounded=1;whiteSpace=wrap;html=1;" vertex="1" parent="1">
          <mxGeometry x="2702.5" y="2325" width="70" height="20" as="geometry" />
        </mxCell>
        <mxCell id="IJb-e8eg-xS6ZChyu8Ve-97" style="edgeStyle=orthogonalEdgeStyle;rounded=1;jumpStyle=arc;orthogonalLoop=1;jettySize=auto;html=1;exitX=1;exitY=0.25;exitDx=0;exitDy=0;entryX=0;entryY=0.5;entryDx=0;entryDy=0;" edge="1" parent="1" source="IJb-e8eg-xS6ZChyu8Ve-68" target="IJb-e8eg-xS6ZChyu8Ve-96">
          <mxGeometry relative="1" as="geometry">
            <mxPoint x="2662.4999999999995" y="2422.5" as="sourcePoint" />
            <mxPoint x="2852.4999999999995" y="2295" as="targetPoint" />
          </mxGeometry>
        </mxCell>
        <mxCell id="IJb-e8eg-xS6ZChyu8Ve-98" value="" style="endArrow=classic;startArrow=classic;html=1;entryX=0;entryY=0.5;entryDx=0;entryDy=0;exitX=1;exitY=0.5;exitDx=0;exitDy=0;" edge="1" parent="1" source="IJb-e8eg-xS6ZChyu8Ve-96" target="IJb-e8eg-xS6ZChyu8Ve-91">
          <mxGeometry width="50" height="50" relative="1" as="geometry">
            <mxPoint x="2802.5" y="2355" as="sourcePoint" />
            <mxPoint x="2852.5" y="2305" as="targetPoint" />
          </mxGeometry>
        </mxCell>
        <mxCell id="IJb-e8eg-xS6ZChyu8Ve-99" value="C backend" style="rounded=0;whiteSpace=wrap;html=1;" vertex="1" parent="1">
          <mxGeometry x="2918" y="3085.5" width="69" height="42.5" as="geometry" />
        </mxCell>
        <mxCell id="IJb-e8eg-xS6ZChyu8Ve-100" value="SLAVE" style="shape=cylinder3;whiteSpace=wrap;html=1;boundedLbl=1;backgroundOutline=1;size=15;" vertex="1" parent="1">
          <mxGeometry x="3327.5" y="3203.5" width="70" height="78.5" as="geometry" />
        </mxCell>
        <mxCell id="IJb-e8eg-xS6ZChyu8Ve-101" value="SLAVE" style="shape=cylinder3;whiteSpace=wrap;html=1;boundedLbl=1;backgroundOutline=1;size=15;" vertex="1" parent="1">
          <mxGeometry x="3437.5" y="3203.5" width="70" height="78.5" as="geometry" />
        </mxCell>
        <mxCell id="IJb-e8eg-xS6ZChyu8Ve-102" value="REDIS DB (маленькая)" style="rounded=0;whiteSpace=wrap;html=1;" vertex="1" parent="1">
          <mxGeometry x="3352.5" y="3088.5" width="130" height="37" as="geometry" />
        </mxCell>
        <mxCell id="IJb-e8eg-xS6ZChyu8Ve-103" value="MASTER" style="shape=cylinder3;whiteSpace=wrap;html=1;boundedLbl=1;backgroundOutline=1;size=15;" vertex="1" parent="1">
          <mxGeometry x="3382.5" y="3321.5" width="70" height="78.5" as="geometry" />
        </mxCell>
        <mxCell id="IJb-e8eg-xS6ZChyu8Ve-104" value="" style="endArrow=classic;startArrow=classic;html=1;entryX=0.855;entryY=1;entryDx=0;entryDy=-4.35;entryPerimeter=0;exitX=0.145;exitY=0;exitDx=0;exitDy=4.35;exitPerimeter=0;" edge="1" parent="1" source="IJb-e8eg-xS6ZChyu8Ve-103" target="IJb-e8eg-xS6ZChyu8Ve-100">
          <mxGeometry width="50" height="50" relative="1" as="geometry">
            <mxPoint x="3277.5" y="3372" as="sourcePoint" />
            <mxPoint x="3327.5" y="3322" as="targetPoint" />
          </mxGeometry>
        </mxCell>
        <mxCell id="IJb-e8eg-xS6ZChyu8Ve-105" value="" style="endArrow=classic;startArrow=classic;html=1;entryX=0;entryY=0;entryDx=0;entryDy=27.125;entryPerimeter=0;exitX=1;exitY=0;exitDx=0;exitDy=27.125;exitPerimeter=0;" edge="1" parent="1" source="IJb-e8eg-xS6ZChyu8Ve-100" target="IJb-e8eg-xS6ZChyu8Ve-101">
          <mxGeometry width="50" height="50" relative="1" as="geometry">
            <mxPoint x="3387.5" y="3292" as="sourcePoint" />
            <mxPoint x="3437.5" y="3242" as="targetPoint" />
          </mxGeometry>
        </mxCell>
        <mxCell id="IJb-e8eg-xS6ZChyu8Ve-106" value="" style="endArrow=classic;html=1;entryX=0.5;entryY=1;entryDx=0;entryDy=0;entryPerimeter=0;" edge="1" parent="1" target="IJb-e8eg-xS6ZChyu8Ve-103">
          <mxGeometry width="50" height="50" relative="1" as="geometry">
            <mxPoint x="3497.5" y="3432" as="sourcePoint" />
            <mxPoint x="3487.5" y="3432" as="targetPoint" />
            <Array as="points">
              <mxPoint x="3412.5" y="3432" />
            </Array>
          </mxGeometry>
        </mxCell>
        <mxCell id="IJb-e8eg-xS6ZChyu8Ve-107" value="WRITE STREAM" style="edgeLabel;html=1;align=center;verticalAlign=middle;resizable=0;points=[];" vertex="1" connectable="0" parent="IJb-e8eg-xS6ZChyu8Ve-106">
          <mxGeometry x="0.0212" y="2" relative="1" as="geometry">
            <mxPoint as="offset" />
          </mxGeometry>
        </mxCell>
        <mxCell id="IJb-e8eg-xS6ZChyu8Ve-108" value="" style="endArrow=classic;html=1;exitX=0.5;exitY=0;exitDx=0;exitDy=0;exitPerimeter=0;" edge="1" parent="1" source="IJb-e8eg-xS6ZChyu8Ve-101">
          <mxGeometry width="50" height="50" relative="1" as="geometry">
            <mxPoint x="3482.5" y="3188.5" as="sourcePoint" />
            <mxPoint x="3322.5" y="3158.5" as="targetPoint" />
            <Array as="points">
              <mxPoint x="3472.5" y="3158.5" />
            </Array>
          </mxGeometry>
        </mxCell>
        <mxCell id="IJb-e8eg-xS6ZChyu8Ve-109" value="" style="endArrow=classic;html=1;exitX=0.5;exitY=0;exitDx=0;exitDy=0;exitPerimeter=0;" edge="1" parent="1" source="IJb-e8eg-xS6ZChyu8Ve-100">
          <mxGeometry width="50" height="50" relative="1" as="geometry">
            <mxPoint x="3292.5" y="3228.5" as="sourcePoint" />
            <mxPoint x="3262.5" y="3158.5" as="targetPoint" />
            <Array as="points">
              <mxPoint x="3362.5" y="3158.5" />
            </Array>
          </mxGeometry>
        </mxCell>
        <mxCell id="IJb-e8eg-xS6ZChyu8Ve-110" value="READ STREAM" style="edgeLabel;html=1;align=center;verticalAlign=middle;resizable=0;points=[];" vertex="1" connectable="0" parent="IJb-e8eg-xS6ZChyu8Ve-109">
          <mxGeometry x="0.5762" y="2" relative="1" as="geometry">
            <mxPoint x="49.48" as="offset" />
          </mxGeometry>
        </mxCell>
        <mxCell id="IJb-e8eg-xS6ZChyu8Ve-111" value="" style="endArrow=classic;startArrow=classic;html=1;entryX=0.855;entryY=1;entryDx=0;entryDy=-4.35;entryPerimeter=0;exitX=0.855;exitY=0;exitDx=0;exitDy=4.35;exitPerimeter=0;" edge="1" parent="1" source="IJb-e8eg-xS6ZChyu8Ve-103">
          <mxGeometry width="50" height="50" relative="1" as="geometry">
            <mxPoint x="3468.3" y="3330.95" as="sourcePoint" />
            <mxPoint x="3468" y="3280" as="targetPoint" />
          </mxGeometry>
        </mxCell>
        <mxCell id="IJb-e8eg-xS6ZChyu8Ve-112" value="" style="endArrow=classic;startArrow=classic;html=1;entryX=0;entryY=0.5;entryDx=0;entryDy=0;exitX=1;exitY=0.5;exitDx=0;exitDy=0;" edge="1" parent="1" source="IJb-e8eg-xS6ZChyu8Ve-99" target="IJb-e8eg-xS6ZChyu8Ve-102">
          <mxGeometry width="50" height="50" relative="1" as="geometry">
            <mxPoint x="3102.5" y="3035" as="sourcePoint" />
            <mxPoint x="3152.5" y="2985" as="targetPoint" />
            <Array as="points">
              <mxPoint x="3092.5" y="3105" />
            </Array>
          </mxGeometry>
        </mxCell>
        <mxCell id="IJb-e8eg-xS6ZChyu8Ve-113" value="сервис пользователей" style="rounded=1;whiteSpace=wrap;html=1;" vertex="1" parent="1">
          <mxGeometry x="2902.5" y="2758.75" width="120" height="60" as="geometry" />
        </mxCell>
        <mxCell id="IJb-e8eg-xS6ZChyu8Ve-114" value="SQL USER DB" style="rounded=0;whiteSpace=wrap;html=1;" vertex="1" parent="1">
          <mxGeometry x="3303.67" y="2695.25" width="212.55" height="37" as="geometry" />
        </mxCell>
        <mxCell id="IJb-e8eg-xS6ZChyu8Ve-115" value="SLAVE" style="shape=cylinder3;whiteSpace=wrap;html=1;boundedLbl=1;backgroundOutline=1;size=15;" vertex="1" parent="1">
          <mxGeometry x="3327.5" y="2797.25" width="70" height="78.5" as="geometry" />
        </mxCell>
        <mxCell id="IJb-e8eg-xS6ZChyu8Ve-116" value="SLAVE" style="shape=cylinder3;whiteSpace=wrap;html=1;boundedLbl=1;backgroundOutline=1;size=15;" vertex="1" parent="1">
          <mxGeometry x="3437.5" y="2797.25" width="70" height="78.5" as="geometry" />
        </mxCell>
        <mxCell id="IJb-e8eg-xS6ZChyu8Ve-117" value="MASTER" style="shape=cylinder3;whiteSpace=wrap;html=1;boundedLbl=1;backgroundOutline=1;size=15;" vertex="1" parent="1">
          <mxGeometry x="3374.95" y="2920.25" width="70" height="78.5" as="geometry" />
        </mxCell>
        <mxCell id="IJb-e8eg-xS6ZChyu8Ve-118" value="" style="endArrow=classic;startArrow=classic;html=1;entryX=0;entryY=0;entryDx=0;entryDy=27.125;entryPerimeter=0;exitX=1;exitY=0;exitDx=0;exitDy=27.125;exitPerimeter=0;" edge="1" parent="1" source="IJb-e8eg-xS6ZChyu8Ve-115" target="IJb-e8eg-xS6ZChyu8Ve-116">
          <mxGeometry width="50" height="50" relative="1" as="geometry">
            <mxPoint x="3387.5" y="2885.75" as="sourcePoint" />
            <mxPoint x="3437.5" y="2835.75" as="targetPoint" />
          </mxGeometry>
        </mxCell>
        <mxCell id="IJb-e8eg-xS6ZChyu8Ve-119" value="" style="endArrow=classic;html=1;exitX=0.5;exitY=0;exitDx=0;exitDy=0;exitPerimeter=0;" edge="1" parent="1" source="IJb-e8eg-xS6ZChyu8Ve-116">
          <mxGeometry width="50" height="50" relative="1" as="geometry">
            <mxPoint x="3482.5" y="2782.25" as="sourcePoint" />
            <mxPoint x="3322.5" y="2752.25" as="targetPoint" />
            <Array as="points">
              <mxPoint x="3472.5" y="2752.25" />
            </Array>
          </mxGeometry>
        </mxCell>
        <mxCell id="IJb-e8eg-xS6ZChyu8Ve-120" value="" style="endArrow=classic;html=1;exitX=0.5;exitY=0;exitDx=0;exitDy=0;exitPerimeter=0;" edge="1" parent="1" source="IJb-e8eg-xS6ZChyu8Ve-115">
          <mxGeometry width="50" height="50" relative="1" as="geometry">
            <mxPoint x="3292.5" y="2822.25" as="sourcePoint" />
            <mxPoint x="3292.5" y="2752" as="targetPoint" />
            <Array as="points">
              <mxPoint x="3362.5" y="2752.25" />
            </Array>
          </mxGeometry>
        </mxCell>
        <mxCell id="IJb-e8eg-xS6ZChyu8Ve-121" value="READ STREAM" style="edgeLabel;html=1;align=center;verticalAlign=middle;resizable=0;points=[];" vertex="1" connectable="0" parent="IJb-e8eg-xS6ZChyu8Ve-120">
          <mxGeometry x="0.5762" y="2" relative="1" as="geometry">
            <mxPoint x="49.48" as="offset" />
          </mxGeometry>
        </mxCell>
        <mxCell id="IJb-e8eg-xS6ZChyu8Ve-122" value="" style="endArrow=classic;startArrow=classic;html=1;entryX=0.5;entryY=1;entryDx=0;entryDy=0;entryPerimeter=0;exitX=0.145;exitY=0;exitDx=0;exitDy=4.35;exitPerimeter=0;" edge="1" parent="1" source="IJb-e8eg-xS6ZChyu8Ve-117" target="IJb-e8eg-xS6ZChyu8Ve-115">
          <mxGeometry width="50" height="50" relative="1" as="geometry">
            <mxPoint x="3302.5" y="2935" as="sourcePoint" />
            <mxPoint x="3352.5" y="2885" as="targetPoint" />
          </mxGeometry>
        </mxCell>
        <mxCell id="IJb-e8eg-xS6ZChyu8Ve-123" value="" style="endArrow=classic;startArrow=classic;html=1;entryX=0.5;entryY=1;entryDx=0;entryDy=0;entryPerimeter=0;exitX=0.855;exitY=0;exitDx=0;exitDy=4.35;exitPerimeter=0;" edge="1" parent="1" source="IJb-e8eg-xS6ZChyu8Ve-117" target="IJb-e8eg-xS6ZChyu8Ve-116">
          <mxGeometry width="50" height="50" relative="1" as="geometry">
            <mxPoint x="3402.6499999999996" y="2934.6" as="sourcePoint" />
            <mxPoint x="3372.5" y="2885.75" as="targetPoint" />
          </mxGeometry>
        </mxCell>
        <mxCell id="IJb-e8eg-xS6ZChyu8Ve-124" value="" style="endArrow=classic;html=1;entryX=0.5;entryY=1;entryDx=0;entryDy=0;entryPerimeter=0;" edge="1" parent="1">
          <mxGeometry width="50" height="50" relative="1" as="geometry">
            <mxPoint x="3487.5" y="3028.5" as="sourcePoint" />
            <mxPoint x="3407.5" y="2996.5" as="targetPoint" />
            <Array as="points">
              <mxPoint x="3402.5" y="3028.5" />
            </Array>
          </mxGeometry>
        </mxCell>
        <mxCell id="IJb-e8eg-xS6ZChyu8Ve-125" value="WRITE STREAM" style="edgeLabel;html=1;align=center;verticalAlign=middle;resizable=0;points=[];" vertex="1" connectable="0" parent="IJb-e8eg-xS6ZChyu8Ve-124">
          <mxGeometry x="0.0212" y="2" relative="1" as="geometry">
            <mxPoint as="offset" />
          </mxGeometry>
        </mxCell>
        <mxCell id="IJb-e8eg-xS6ZChyu8Ve-126" value="" style="endArrow=classic;html=1;entryX=0;entryY=0.5;entryDx=0;entryDy=0;fillColor=#d5e8d4;strokeColor=#82b366;" edge="1" parent="1" target="IJb-e8eg-xS6ZChyu8Ve-113">
          <mxGeometry width="50" height="50" relative="1" as="geometry">
            <mxPoint x="2812.5" y="2789.0000000000005" as="sourcePoint" />
            <mxPoint x="2902.5" y="2805" as="targetPoint" />
          </mxGeometry>
        </mxCell>
        <mxCell id="IJb-e8eg-xS6ZChyu8Ve-127" value="C backend" style="rounded=0;whiteSpace=wrap;html=1;" vertex="1" parent="1">
          <mxGeometry x="2928" y="2818.75" width="69" height="42.5" as="geometry" />
        </mxCell>
        <mxCell id="IJb-e8eg-xS6ZChyu8Ve-128" value="" style="endArrow=classic;startArrow=classic;html=1;entryX=0;entryY=0.5;entryDx=0;entryDy=0;exitX=1;exitY=0.5;exitDx=0;exitDy=0;" edge="1" parent="1" source="IJb-e8eg-xS6ZChyu8Ve-127" target="IJb-e8eg-xS6ZChyu8Ve-114">
          <mxGeometry width="50" height="50" relative="1" as="geometry">
            <mxPoint x="3192.5" y="2755" as="sourcePoint" />
            <mxPoint x="3242.5" y="2705" as="targetPoint" />
            <Array as="points">
              <mxPoint x="3122.5" y="2840" />
              <mxPoint x="3122.5" y="2714" />
            </Array>
          </mxGeometry>
        </mxCell>
        <mxCell id="IJb-e8eg-xS6ZChyu8Ve-129" value="C++" style="rounded=0;whiteSpace=wrap;html=1;" vertex="1" parent="1">
          <mxGeometry x="2905.5" y="2365" width="94" height="39" as="geometry" />
        </mxCell>
        <mxCell id="IJb-e8eg-xS6ZChyu8Ve-130" value="" style="endArrow=classic;startArrow=classic;html=1;entryX=0.5;entryY=1;entryDx=0;entryDy=0;entryPerimeter=0;exitX=0.5;exitY=0;exitDx=0;exitDy=0;exitPerimeter=0;" edge="1" parent="1" source="IJb-e8eg-xS6ZChyu8Ve-36" target="IJb-e8eg-xS6ZChyu8Ve-38">
          <mxGeometry width="50" height="50" relative="1" as="geometry">
            <mxPoint x="3732.5" y="2465" as="sourcePoint" />
            <mxPoint x="3782.5" y="2415" as="targetPoint" />
          </mxGeometry>
        </mxCell>
        <mxCell id="IJb-e8eg-xS6ZChyu8Ve-131" value="" style="endArrow=classic;startArrow=classic;html=1;entryX=0.217;entryY=0.954;entryDx=0;entryDy=0;entryPerimeter=0;exitX=0.855;exitY=0;exitDx=0;exitDy=4.35;exitPerimeter=0;" edge="1" parent="1" source="IJb-e8eg-xS6ZChyu8Ve-30" target="IJb-e8eg-xS6ZChyu8Ve-36">
          <mxGeometry width="50" height="50" relative="1" as="geometry">
            <mxPoint x="3582.5" y="2545" as="sourcePoint" />
            <mxPoint x="3632.5" y="2495" as="targetPoint" />
          </mxGeometry>
        </mxCell>
        <mxCell id="IJb-e8eg-xS6ZChyu8Ve-132" value="" style="endArrow=classic;startArrow=classic;html=1;entryX=0.319;entryY=0.992;entryDx=0;entryDy=0;entryPerimeter=0;" edge="1" parent="1" target="IJb-e8eg-xS6ZChyu8Ve-38">
          <mxGeometry width="50" height="50" relative="1" as="geometry">
            <mxPoint x="3631.5" y="2544.0000000000005" as="sourcePoint" />
            <mxPoint x="3502.5" y="2465" as="targetPoint" />
          </mxGeometry>
        </mxCell>
        <mxCell id="IJb-e8eg-xS6ZChyu8Ve-133" value="" style="endArrow=classic;html=1;entryX=0.75;entryY=1;entryDx=0;entryDy=0;exitX=1;exitY=0.25;exitDx=0;exitDy=0;fillColor=#f8cecc;strokeColor=#b85450;" edge="1" parent="1" source="IJb-e8eg-xS6ZChyu8Ve-91" target="IJb-e8eg-xS6ZChyu8Ve-81">
          <mxGeometry width="50" height="50" relative="1" as="geometry">
            <mxPoint x="3007" y="2839.375" as="sourcePoint" />
            <mxPoint x="3252.4999999999995" y="2215" as="targetPoint" />
            <Array as="points">
              <mxPoint x="3302.5" y="2320" />
            </Array>
          </mxGeometry>
        </mxCell>
        <mxCell id="IJb-e8eg-xS6ZChyu8Ve-134" value="" style="shape=flexArrow;endArrow=classic;startArrow=classic;html=1;entryX=0;entryY=0.5;entryDx=0;entryDy=0;exitX=1;exitY=0.5;exitDx=0;exitDy=0;" edge="1" parent="1" source="IJb-e8eg-xS6ZChyu8Ve-91" target="IJb-e8eg-xS6ZChyu8Ve-28">
          <mxGeometry width="50" height="50" relative="1" as="geometry">
            <mxPoint x="3222.5" y="2335" as="sourcePoint" />
            <mxPoint x="3232.5" y="2395" as="targetPoint" />
            <Array as="points">
              <mxPoint x="3482.5" y="2335" />
              <mxPoint x="3482.5" y="2175" />
            </Array>
          </mxGeometry>
        </mxCell>
        <mxCell id="IJb-e8eg-xS6ZChyu8Ve-135" value="LINUX" style="rounded=0;whiteSpace=wrap;html=1;" vertex="1" parent="1">
          <mxGeometry x="2362.5" y="2215" width="60" height="30" as="geometry" />
        </mxCell>
        <mxCell id="IJb-e8eg-xS6ZChyu8Ve-136" value="LINUX" style="rounded=0;whiteSpace=wrap;html=1;" vertex="1" parent="1">
          <mxGeometry x="2359.5" y="2530" width="60" height="30" as="geometry" />
        </mxCell>
        <mxCell id="IJb-e8eg-xS6ZChyu8Ve-137" value="VUE.JS&lt;br&gt;SPA" style="rounded=0;whiteSpace=wrap;html=1;" vertex="1" parent="1">
          <mxGeometry x="2359.5" y="2590" width="63" height="25" as="geometry" />
        </mxCell>
        <mxCell id="IJb-e8eg-xS6ZChyu8Ve-138" value="" style="endArrow=classic;html=1;entryX=0.75;entryY=1;entryDx=0;entryDy=0;exitX=0;exitY=0.25;exitDx=0;exitDy=0;fillColor=#dae8fc;strokeColor=#6c8ebf;" edge="1" parent="1" source="IJb-e8eg-xS6ZChyu8Ve-91" target="IJb-e8eg-xS6ZChyu8Ve-86">
          <mxGeometry width="50" height="50" relative="1" as="geometry">
            <mxPoint x="2752.5" y="2275" as="sourcePoint" />
            <mxPoint x="2802.5" y="2225" as="targetPoint" />
            <Array as="points">
              <mxPoint x="2838.5" y="2320" />
            </Array>
          </mxGeometry>
        </mxCell>
        <mxCell id="IJb-e8eg-xS6ZChyu8Ve-139" value="" style="endArrow=classic;html=1;entryX=0.25;entryY=1;entryDx=0;entryDy=0;exitX=0;exitY=0.25;exitDx=0;exitDy=0;fillColor=#dae8fc;strokeColor=#6c8ebf;" edge="1" parent="1" target="IJb-e8eg-xS6ZChyu8Ve-86">
          <mxGeometry width="50" height="50" relative="1" as="geometry">
            <mxPoint x="2902.499999999999" y="2775" as="sourcePoint" />
            <mxPoint x="2848.5" y="2635" as="targetPoint" />
            <Array as="points">
              <mxPoint x="2788.5" y="2775" />
            </Array>
          </mxGeometry>
        </mxCell>
        <mxCell id="IJb-e8eg-xS6ZChyu8Ve-140" value="" style="endArrow=classic;html=1;entryX=0;entryY=0.75;entryDx=0;entryDy=0;exitX=1;exitY=0.5;exitDx=0;exitDy=0;" edge="1" parent="1" source="IJb-e8eg-xS6ZChyu8Ve-68" target="IJb-e8eg-xS6ZChyu8Ve-113">
          <mxGeometry width="50" height="50" relative="1" as="geometry">
            <mxPoint x="2802.5" y="2875" as="sourcePoint" />
            <mxPoint x="2852.5" y="2825" as="targetPoint" />
            <Array as="points">
              <mxPoint x="2772.5" y="2438" />
              <mxPoint x="2772.5" y="2804" />
            </Array>
          </mxGeometry>
        </mxCell>
        <mxCell id="IJb-e8eg-xS6ZChyu8Ve-141" style="edgeStyle=orthogonalEdgeStyle;rounded=0;orthogonalLoop=1;jettySize=auto;html=1;exitX=1;exitY=0.5;exitDx=0;exitDy=0;exitPerimeter=0;startArrow=classic;startFill=1;strokeWidth=2;entryX=0;entryY=0.5;entryDx=0;entryDy=0;" edge="1" parent="1" source="IJb-e8eg-xS6ZChyu8Ve-4" target="IJb-e8eg-xS6ZChyu8Ve-163">
          <mxGeometry relative="1" as="geometry">
            <mxPoint x="1980.78" y="526" as="targetPoint" />
            <mxPoint x="1860.78" y="526" as="sourcePoint" />
          </mxGeometry>
        </mxCell>
        <mxCell id="IJb-e8eg-xS6ZChyu8Ve-142" value="" style="outlineConnect=0;dashed=0;verticalLabelPosition=bottom;verticalAlign=top;align=center;html=1;shape=mxgraph.aws3.traditional_server;fillColor=#7D7C7C;gradientColor=none;" vertex="1" parent="1">
          <mxGeometry x="2928.78" y="210" width="40" height="69" as="geometry" />
        </mxCell>
        <mxCell id="IJb-e8eg-xS6ZChyu8Ve-143" value="&lt;span style=&quot;font-size: 14px&quot;&gt;Client Application Service&lt;br&gt;(Golang)&lt;br&gt;&lt;/span&gt;" style="text;html=1;align=center;verticalAlign=middle;resizable=0;points=[];autosize=1;strokeColor=none;" vertex="1" parent="1">
          <mxGeometry x="2864.78" y="169" width="168" height="34" as="geometry" />
        </mxCell>
        <mxCell id="IJb-e8eg-xS6ZChyu8Ve-144" value="" style="aspect=fixed;html=1;points=[];align=center;image;fontSize=12;image=img/lib/azure2/databases/Azure_Database_PostgreSQL_Server.svg;sketch=0;" vertex="1" parent="1">
          <mxGeometry x="3136.98" y="230" width="73.5" height="98" as="geometry" />
        </mxCell>
        <mxCell id="IJb-e8eg-xS6ZChyu8Ve-145" value="" style="outlineConnect=0;dashed=0;verticalLabelPosition=bottom;verticalAlign=top;align=center;html=1;shape=mxgraph.aws3.traditional_server;fillColor=#7D7C7C;gradientColor=none;" vertex="1" parent="1">
          <mxGeometry x="2932.78" y="345.25" width="40" height="69" as="geometry" />
        </mxCell>
        <mxCell id="IJb-e8eg-xS6ZChyu8Ve-146" value="&lt;font style=&quot;font-size: 14px&quot;&gt;Cookie Authorisation Service&lt;br&gt;(C++)&lt;br&gt;&lt;/font&gt;" style="text;html=1;align=center;verticalAlign=middle;resizable=0;points=[];autosize=1;strokeColor=none;" vertex="1" parent="1">
          <mxGeometry x="2858.28" y="306" width="189" height="34" as="geometry" />
        </mxCell>
        <mxCell id="IJb-e8eg-xS6ZChyu8Ve-147" style="edgeStyle=orthogonalEdgeStyle;rounded=0;orthogonalLoop=1;jettySize=auto;html=1;exitX=1;exitY=0.5;exitDx=0;exitDy=0;entryX=0;entryY=0.5;entryDx=0;entryDy=0;entryPerimeter=0;" edge="1" parent="1" source="IJb-e8eg-xS6ZChyu8Ve-150" target="IJb-e8eg-xS6ZChyu8Ve-142">
          <mxGeometry relative="1" as="geometry">
            <Array as="points">
              <mxPoint x="2814.78" y="321" />
              <mxPoint x="2814.78" y="245" />
            </Array>
          </mxGeometry>
        </mxCell>
        <mxCell id="IJb-e8eg-xS6ZChyu8Ve-148" style="edgeStyle=orthogonalEdgeStyle;rounded=0;orthogonalLoop=1;jettySize=auto;html=1;exitX=1;exitY=0.5;exitDx=0;exitDy=0;entryX=0;entryY=0.5;entryDx=0;entryDy=0;entryPerimeter=0;" edge="1" parent="1" source="IJb-e8eg-xS6ZChyu8Ve-150" target="IJb-e8eg-xS6ZChyu8Ve-145">
          <mxGeometry relative="1" as="geometry">
            <Array as="points">
              <mxPoint x="2816.78" y="321" />
              <mxPoint x="2816.78" y="380" />
            </Array>
          </mxGeometry>
        </mxCell>
        <mxCell id="IJb-e8eg-xS6ZChyu8Ve-149" style="edgeStyle=orthogonalEdgeStyle;rounded=0;orthogonalLoop=1;jettySize=auto;html=1;exitX=1;exitY=0.5;exitDx=0;exitDy=0;entryX=0;entryY=0.5;entryDx=0;entryDy=0;entryPerimeter=0;" edge="1" parent="1" source="IJb-e8eg-xS6ZChyu8Ve-150" target="IJb-e8eg-xS6ZChyu8Ve-5">
          <mxGeometry relative="1" as="geometry" />
        </mxCell>
        <mxCell id="IJb-e8eg-xS6ZChyu8Ve-150" value="API Gateway" style="rounded=1;whiteSpace=wrap;html=1;" vertex="1" parent="1">
          <mxGeometry x="2579.78" y="290.5" width="120" height="60" as="geometry" />
        </mxCell>
        <mxCell id="IJb-e8eg-xS6ZChyu8Ve-151" value="Web-client&lt;br&gt;VUEjs/ Flutter" style="rounded=1;whiteSpace=wrap;html=1;" vertex="1" parent="1">
          <mxGeometry x="2086.28" y="290" width="120" height="60" as="geometry" />
        </mxCell>
        <mxCell id="IJb-e8eg-xS6ZChyu8Ve-152" value="" style="outlineConnect=0;dashed=0;verticalLabelPosition=bottom;verticalAlign=top;align=center;html=1;shape=mxgraph.aws3.traditional_server;fillColor=#7D7C7C;gradientColor=none;" vertex="1" parent="1">
          <mxGeometry x="2377.78" y="286" width="40" height="69" as="geometry" />
        </mxCell>
        <mxCell id="IJb-e8eg-xS6ZChyu8Ve-153" value="NGINX&lt;br&gt;reverse-proxy" style="text;html=1;align=center;verticalAlign=middle;resizable=0;points=[];autosize=1;strokeColor=none;fillColor=none;" vertex="1" parent="1">
          <mxGeometry x="2356.78" y="354" width="83" height="32" as="geometry" />
        </mxCell>
        <mxCell id="IJb-e8eg-xS6ZChyu8Ve-154" style="edgeStyle=orthogonalEdgeStyle;rounded=0;orthogonalLoop=1;jettySize=auto;html=1;exitX=1;exitY=0.5;exitDx=0;exitDy=0;entryX=0;entryY=0.5;entryDx=0;entryDy=0;entryPerimeter=0;" edge="1" parent="1" source="IJb-e8eg-xS6ZChyu8Ve-155" target="IJb-e8eg-xS6ZChyu8Ve-152">
          <mxGeometry relative="1" as="geometry" />
        </mxCell>
        <mxCell id="IJb-e8eg-xS6ZChyu8Ve-155" value="Flutter iOS App" style="rounded=1;whiteSpace=wrap;html=1;" vertex="1" parent="1">
          <mxGeometry x="2086.28" y="199" width="120" height="60" as="geometry" />
        </mxCell>
        <mxCell id="IJb-e8eg-xS6ZChyu8Ve-156" style="edgeStyle=orthogonalEdgeStyle;rounded=0;orthogonalLoop=1;jettySize=auto;html=1;exitX=1;exitY=0.5;exitDx=0;exitDy=0;entryX=0;entryY=0.5;entryDx=0;entryDy=0;entryPerimeter=0;" edge="1" parent="1" source="IJb-e8eg-xS6ZChyu8Ve-157" target="IJb-e8eg-xS6ZChyu8Ve-152">
          <mxGeometry relative="1" as="geometry" />
        </mxCell>
        <mxCell id="IJb-e8eg-xS6ZChyu8Ve-157" value="Flutter Android App" style="rounded=1;whiteSpace=wrap;html=1;" vertex="1" parent="1">
          <mxGeometry x="2086.28" y="114" width="120" height="60" as="geometry" />
        </mxCell>
        <mxCell id="IJb-e8eg-xS6ZChyu8Ve-158" value="" style="endArrow=classic;startArrow=classic;html=1;rounded=0;entryX=0;entryY=0.5;entryDx=0;entryDy=0;entryPerimeter=0;exitX=1;exitY=0.5;exitDx=0;exitDy=0;" edge="1" parent="1" source="IJb-e8eg-xS6ZChyu8Ve-151" target="IJb-e8eg-xS6ZChyu8Ve-152">
          <mxGeometry width="50" height="50" relative="1" as="geometry">
            <mxPoint x="2230.78" y="327" as="sourcePoint" />
            <mxPoint x="2280.78" y="277" as="targetPoint" />
          </mxGeometry>
        </mxCell>
        <mxCell id="IJb-e8eg-xS6ZChyu8Ve-159" value="" style="endArrow=classic;html=1;rounded=0;entryX=0;entryY=0.5;entryDx=0;entryDy=0;exitX=0.98;exitY=0.51;exitDx=0;exitDy=0;exitPerimeter=0;" edge="1" parent="1" source="IJb-e8eg-xS6ZChyu8Ve-9" target="IJb-e8eg-xS6ZChyu8Ve-157">
          <mxGeometry width="50" height="50" relative="1" as="geometry">
            <mxPoint x="1970.78" y="145" as="sourcePoint" />
            <mxPoint x="2020.78" y="95" as="targetPoint" />
          </mxGeometry>
        </mxCell>
        <mxCell id="IJb-e8eg-xS6ZChyu8Ve-160" value="" style="endArrow=classic;html=1;rounded=0;entryX=0;entryY=0.5;entryDx=0;entryDy=0;exitX=0.98;exitY=0.51;exitDx=0;exitDy=0;exitPerimeter=0;" edge="1" parent="1" source="IJb-e8eg-xS6ZChyu8Ve-9" target="IJb-e8eg-xS6ZChyu8Ve-155">
          <mxGeometry width="50" height="50" relative="1" as="geometry">
            <mxPoint x="1938.78" y="256" as="sourcePoint" />
            <mxPoint x="1988.78" y="206" as="targetPoint" />
            <Array as="points">
              <mxPoint x="1975.78" y="145" />
              <mxPoint x="1975.78" y="229" />
            </Array>
          </mxGeometry>
        </mxCell>
        <mxCell id="IJb-e8eg-xS6ZChyu8Ve-161" value="" style="endArrow=classic;startArrow=classic;html=1;rounded=0;entryX=0;entryY=0.5;entryDx=0;entryDy=0;exitX=1;exitY=0.5;exitDx=0;exitDy=0;exitPerimeter=0;" edge="1" parent="1" source="IJb-e8eg-xS6ZChyu8Ve-152" target="IJb-e8eg-xS6ZChyu8Ve-150">
          <mxGeometry width="50" height="50" relative="1" as="geometry">
            <mxPoint x="2261.78" y="486" as="sourcePoint" />
            <mxPoint x="2311.78" y="436" as="targetPoint" />
          </mxGeometry>
        </mxCell>
        <mxCell id="IJb-e8eg-xS6ZChyu8Ve-162" style="edgeStyle=orthogonalEdgeStyle;rounded=0;orthogonalLoop=1;jettySize=auto;html=1;exitX=1;exitY=0.5;exitDx=0;exitDy=0;entryX=0;entryY=0.5;entryDx=0;entryDy=0;entryPerimeter=0;" edge="1" parent="1" source="IJb-e8eg-xS6ZChyu8Ve-163" target="IJb-e8eg-xS6ZChyu8Ve-152">
          <mxGeometry relative="1" as="geometry">
            <Array as="points">
              <mxPoint x="2293.78" y="526" />
              <mxPoint x="2293.78" y="321" />
            </Array>
          </mxGeometry>
        </mxCell>
        <mxCell id="IJb-e8eg-xS6ZChyu8Ve-163" value="C++ CLI&lt;br&gt;Terminal App&lt;br&gt;(OpenCV)" style="rounded=1;whiteSpace=wrap;html=1;" vertex="1" parent="1">
          <mxGeometry x="2079.78" y="496" width="120" height="60" as="geometry" />
        </mxCell>
        <mxCell id="IJb-e8eg-xS6ZChyu8Ve-164" value="Redis DB" style="rounded=1;whiteSpace=wrap;html=1;" vertex="1" parent="1">
          <mxGeometry x="3113.73" y="370" width="120" height="60" as="geometry" />
        </mxCell>
        <mxCell id="IJb-e8eg-xS6ZChyu8Ve-165" value="" style="outlineConnect=0;dashed=0;verticalLabelPosition=bottom;verticalAlign=top;align=center;html=1;shape=mxgraph.aws3.traditional_server;fillColor=#7D7C7C;gradientColor=none;" vertex="1" parent="1">
          <mxGeometry x="2678.72" y="71" width="40" height="69" as="geometry" />
        </mxCell>
        <mxCell id="IJb-e8eg-xS6ZChyu8Ve-166" value="" style="outlineConnect=0;dashed=0;verticalLabelPosition=bottom;verticalAlign=top;align=center;html=1;shape=mxgraph.aws3.traditional_server;fillColor=#7D7C7C;gradientColor=none;" vertex="1" parent="1">
          <mxGeometry x="2813.5" y="71" width="40" height="69" as="geometry" />
        </mxCell>
        <mxCell id="IJb-e8eg-xS6ZChyu8Ve-167" value="Grafana" style="text;html=1;strokeColor=none;fillColor=none;align=center;verticalAlign=middle;whiteSpace=wrap;rounded=0;" vertex="1" parent="1">
          <mxGeometry x="2668.72" y="30" width="60" height="30" as="geometry" />
        </mxCell>
        <mxCell id="IJb-e8eg-xS6ZChyu8Ve-168" value="Prometheus" style="text;html=1;strokeColor=none;fillColor=none;align=center;verticalAlign=middle;whiteSpace=wrap;rounded=0;" vertex="1" parent="1">
          <mxGeometry x="2803.5" y="30" width="60" height="30" as="geometry" />
        </mxCell>
      </root>
    </mxGraphModel>
  </diagram>
</mxfile>
